<svg xmlns="http://www.w3.org/2000/svg" viewBox="0 0 600 403.4"><defs><style>.cls-1{isolation:isolate;}.cls-2{fill:none;}.cls-14,.cls-15,.cls-20,.cls-3{fill:#e6e6e6;}.cls-16,.cls-17,.cls-19,.cls-4,.cls-7,.cls-8,.cls-9{fill:#f2f2f2;}.cls-5{fill:#f7f7f7;}.cls-6{fill:#ededed;}.cls-19,.cls-7{stroke:#e6e6e6;}.cls-10,.cls-15,.cls-16,.cls-17,.cls-19,.cls-20,.cls-7,.cls-9{stroke-miterlimit:10;}.cls-7{stroke-width:1.97px;}.cls-8{opacity:0.8;mix-blend-mode:multiply;}.cls-15,.cls-9{stroke:#ccc;}.cls-10,.cls-15,.cls-17,.cls-19,.cls-9{stroke-width:1.31px;}.cls-10,.cls-11{fill:#ccc;}.cls-10,.cls-16,.cls-17,.cls-20{stroke:#b3b3b3;}.cls-12{fill:#999;}.cls-13{fill:#b3b3b3;}.cls-14{mix-blend-mode:darken;}.cls-16{stroke-width:2.62px;}.cls-18{fill:gray;}.cls-20{stroke-width:1px;}</style></defs><title>leftbg</title><g class="cls-1"><g id="Layer_2" data-name="Layer 2"><g id="Layer_1-2" data-name="Layer 1"><rect class="cls-2" width="600" height="403"/><polygon class="cls-3" points="115.56 239.34 115.56 216.38 62.4 216.38 62.4 239.34 62.4 297.92 62.4 401.43 149.68 401.43 149.68 239.34 115.56 239.34"/><path class="cls-4" d="M307.62,313.81c-1.72,27.85-18.16,49.5-36.73,48.36s-32.23-24.64-30.52-52.49,18.15-49.51,36.72-48.36S309.33,286,307.62,313.81Z"/><polygon class="cls-3" points="288.49 333.08 276.06 342.64 273.99 298.98 268.93 402.09 279.06 402.09 276.33 348.83 288.49 333.08"/><path class="cls-4" d="M86.68,108a2.08,2.08,0,0,1-2.13,2.08H27.13A2.08,2.08,0,0,1,25,108v-4.27a2.17,2.17,0,0,1,2.13-2.18H84.55a2.17,2.17,0,0,1,2.13,2.18Z"/><path class="cls-3" d="M85.33,93H79.65c-1.18,0-2.81-.15-2.81,1v4.22h-16c-.72,0-1.07.33-1.07,1v11.2c0,.72.35,2.18,1.07,2.18h25.3c.72,0,1.19-1.46,1.19-2.18V94C87.34,92.86,86.5,93,85.33,93Z"/><rect class="cls-5" x="19.09" y="110.07" width="68.25" height="293.33"/><rect class="cls-6" x="27.62" y="120.57" width="11.81" height="130.59" rx="2.18"/><rect class="cls-6" x="47.31" y="120.57" width="11.81" height="130.59" rx="2.18"/><rect class="cls-6" x="65.03" y="120.57" width="11.81" height="130.59" rx="2.18"/><rect class="cls-6" x="8.59" y="255.75" width="91.87" height="147.65"/><line class="cls-7" x1="22.7" y1="263.62" x2="22.7" y2="398.15"/><line class="cls-7" x1="56.17" y1="263.62" x2="56.17" y2="398.15"/><line class="cls-7" x1="39.76" y1="263.62" x2="39.76" y2="398.15"/><line class="cls-7" x1="88.98" y1="263.62" x2="88.98" y2="398.15"/><line class="cls-7" x1="73.23" y1="263.62" x2="73.23" y2="398.15"/><rect class="cls-3" x="4" y="249.84" width="104.34" height="11.16" rx="1.95"/><polygon class="cls-8" points="87.34 191.6 19.09 259.64 19.09 335.81 87.34 335.81 87.34 191.6"/><polygon class="cls-9" points="74.87 249.89 74.87 402.09 231.71 402.09 231.71 292.53 74.87 249.89"/><path class="cls-10" d="M235.39,294.94a1.72,1.72,0,0,1-2.11,1.21L73.07,253.23a1.72,1.72,0,0,1-1.22-2.11l1.32-4.92a1.71,1.71,0,0,1,2.1-1.21l160.21,42.92A1.72,1.72,0,0,1,236.7,290Z"/><path class="cls-3" d="M222.52,351.9c0-.95-1.49-1.65-2.44-1.65H187.9a1.46,1.46,0,0,0-1.47,1.65v43.74c0,.95.52,2.51,1.47,2.51h32.18a3.29,3.29,0,0,0,2.44-2.51Z"/><path class="cls-11" d="M219.9,395.53c0-.66,0-.06,0-.1V352.22H189.06v43.31Z"/><path class="cls-3" d="M191.53,374.67a2.27,2.27,0,1,0,2.27-2.27A2.27,2.27,0,0,0,191.53,374.67Z"/><rect class="cls-12" x="180.53" y="397.5" width="47.25" height="4.59"/><rect class="cls-13" x="186.43" y="392.25" width="36.09" height="5.25"/><polygon class="cls-14" points="74.87 261.05 74.87 265.81 231.71 307.83 231.71 303.07 74.87 261.05"/><path class="cls-10" d="M234.58,303.54a1.72,1.72,0,0,1-2.11,1.21L72.26,261.82a1.71,1.71,0,0,1-1.21-2.1l.29-1.12a1.72,1.72,0,0,1,2.11-1.21l160.21,42.92a1.73,1.73,0,0,1,1.22,2.11Z"/><rect class="cls-3" x="187.09" y="312.84" width="36.75" height="28.22"/><path class="cls-11" d="M197.59,315.79a1.65,1.65,0,0,1-1.64,1.65h0a1.64,1.64,0,0,1-1.64-1.65v-5.9a1.63,1.63,0,0,1,1.64-1.64h0a1.64,1.64,0,0,1,1.64,1.64Z"/><path class="cls-11" d="M218.59,315.79a1.65,1.65,0,0,1-1.64,1.65h0a1.64,1.64,0,0,1-1.64-1.65v-5.9a1.63,1.63,0,0,1,1.64-1.64h0a1.64,1.64,0,0,1,1.64,1.64Z"/><rect class="cls-3" x="154.93" y="327.28" width="22.97" height="42"/><rect class="cls-4" x="156.9" y="329.9" width="7.87" height="9.19"/><rect class="cls-4" x="168.71" y="329.9" width="6.56" height="9.19"/><rect class="cls-4" x="156.9" y="341.72" width="7.87" height="8.53"/><rect class="cls-4" x="168.71" y="341.72" width="6.56" height="8.53"/><rect class="cls-4" x="156.9" y="352.87" width="7.87" height="8.53"/><rect class="cls-4" x="168.71" y="352.87" width="6.56" height="8.53"/><rect class="cls-3" x="125.4" y="327.28" width="22.97" height="42"/><rect class="cls-4" x="127.37" y="329.9" width="7.87" height="9.19"/><rect class="cls-4" x="139.18" y="329.9" width="6.56" height="9.19"/><rect class="cls-4" x="127.37" y="341.72" width="7.87" height="8.53"/><rect class="cls-4" x="139.18" y="341.72" width="6.56" height="8.53"/><rect class="cls-4" x="127.37" y="352.87" width="7.87" height="8.53"/><rect class="cls-4" x="139.18" y="352.87" width="6.56" height="8.53"/><rect class="cls-11" x="119.5" y="304.97" width="17.06" height="5.25"/><rect class="cls-11" x="119.5" y="283.97" width="17.06" height="5.25"/><rect class="cls-15" x="132.62" y="266.25" width="26.25" height="61.69" rx="12.93"/><rect class="cls-4" x="137.21" y="270.84" width="17.06" height="52.5" rx="8.34"/><rect class="cls-9" x="17.12" y="231.47" width="103.68" height="170.62"/><path class="cls-10" d="M126.71,233.74a1.68,1.68,0,0,1-1.72,1.67H13.6a1.69,1.69,0,0,1-1.73-1.67v-5.09a1.77,1.77,0,0,1,1.73-1.77H125a1.76,1.76,0,0,1,1.72,1.77Z"/><path class="cls-3" d="M50.59,347.31c0-.95,1.55-1.66,2.51-1.66H85.28c1,0,1.4.71,1.4,1.66V391c0,.95-.45,2.52-1.4,2.52H53.1A3.38,3.38,0,0,1,50.59,391Z"/><path class="cls-11" d="M53.28,390.93c0-.65-.06-.06-.06-.09V347.62h31.5v43.31Z"/><path class="cls-3" d="M81.65,370.08a2.27,2.27,0,1,1-2.27-2.27A2.27,2.27,0,0,1,81.65,370.08Z"/><rect class="cls-13" x="37.47" y="397.5" width="63" height="3.94"/><rect class="cls-12" x="45.34" y="392.9" width="46.59" height="4.59"/><rect class="cls-13" x="50.59" y="387.65" width="36.09" height="5.25"/><polygon class="cls-3" points="117.27 236.06 17.78 236.06 17.78 240.66 117.09 240.66 120.15 240.66 120.15 236.06 117.27 236.06"/><circle class="cls-3" cx="68.41" cy="287.91" r="34.33"/><path class="cls-4" d="M70.94,317.94c13.12-.85,24.58-11,27.05-24.78h-27Z"/><path class="cls-4" d="M67,257.9c-16.41,1-28.38,14-28.38,29.86a10.44,10.44,0,0,1-.26,1.46H67Z"/><path class="cls-3" d="M38.83,293.16C41.29,306.94,52.56,317,67,317.93V293.16Z"/><path class="cls-4" d="M98.45,289.22a4.33,4.33,0,0,0,.38-1.46,30.16,30.16,0,0,0-27.89-29.87v31.33Z"/><path class="cls-4" d="M372.81,337.93c-1,16.63-10.84,29.56-21.93,28.87s-19.25-14.71-18.22-31.34,10.84-29.56,21.92-28.88S373.83,321.3,372.81,337.93Z"/><path class="cls-4" d="M350.6,341.11c7.5,8.48,9,19.41,3.34,24.41s-16.32,2.17-23.81-6.31-9-19.4-3.34-24.4S343.1,332.63,350.6,341.11Z"/><polygon class="cls-3" points="359.12 350.91 349.93 357.98 348.41 325.85 344.66 400.78 352.15 400.78 350.13 362.67 359.12 350.91"/><path class="cls-13" d="M245.52,257.09a3.55,3.55,0,0,0-3.31,3.22V399.65a3.3,3.3,0,0,0,6.56,0V263Z"/><path class="cls-11" d="M252.71,401.1a1.63,1.63,0,0,1-1.64,1.64h-10.5a1.63,1.63,0,0,1-1.64-1.64h0a1.64,1.64,0,0,1,1.64-1.64h10.5a1.64,1.64,0,0,1,1.64,1.64Z"/><polygon class="cls-16" points="251.86 273.47 239.07 273.47 237.24 255.09 253.69 255.09 251.86 273.47"/><rect class="cls-13" x="242.87" y="274.12" width="5.91" height="1.97"/><line class="cls-17" x1="242.87" y1="256.41" x2="242.87" y2="272.16"/><line class="cls-17" x1="248.77" y1="256.41" x2="248.77" y2="272.16"/><path class="cls-12" d="M258,255.26a1.16,1.16,0,0,1-1.2,1.15H234.88a1.16,1.16,0,0,1-1.2-1.15V255a1.25,1.25,0,0,1,1.2-1.25h21.88A1.25,1.25,0,0,1,258,255Z"/><rect class="cls-12" x="240.9" y="251.81" width="11.16" height="2.62" rx="1.24"/><rect class="cls-18" x="135.25" y="374.53" width="3.94" height="26.91"/><rect class="cls-18" x="168.06" y="374.53" width="3.94" height="26.91"/><rect class="cls-13" x="128.03" y="374.53" width="50.53" height="3.94"/><rect class="cls-13" x="128.03" y="379.78" width="50.53" height="3.94"/><rect class="cls-13" x="128.03" y="385.03" width="50.53" height="3.94"/><rect class="cls-12" x="125.4" y="390.93" width="55.12" height="3.94"/><rect class="cls-18" x="125.4" y="390.93" width="55.12" height="1.31"/><path class="cls-3" d="M305.57,334.78a5.9,5.9,0,1,0-4,0,7.76,7.76,0,0,0-5.76,7.49V359a7.76,7.76,0,0,0,15.51,0V342.26A7.74,7.74,0,0,0,305.57,334.78Z"/><rect class="cls-19" x="292.08" y="345.65" width="22.31" height="9.19"/><rect class="cls-19" x="288.8" y="352.22" width="28.87" height="9.19"/><rect class="cls-19" x="286.18" y="359.43" width="34.12" height="39.37"/><rect class="cls-3" x="292.08" y="363.37" width="22.97" height="9.19"/><polygon class="cls-3" points="290.12 399.46 282.24 399.46 282.24 381.8 286.11 378.19 290.12 381.8 290.12 399.46"/><polygon class="cls-3" points="301.27 399.46 293.4 399.46 293.4 381.8 297.27 378.19 301.27 381.8 301.27 399.46"/><polygon class="cls-3" points="313.08 399.46 305.21 399.46 305.21 381.8 309.08 378.19 313.08 381.8 313.08 399.46"/><polygon class="cls-3" points="324.24 399.46 316.36 399.46 316.36 381.8 320.24 378.19 324.24 381.8 324.24 399.46"/><rect class="cls-3" x="277.65" y="398.15" width="50.53" height="3.94"/><path class="cls-3" d="M324.24,402.09s13.8-24.59,39.05-9.83c0,0,18.38-.67,20,9.83Z"/><rect class="cls-13" x="34.19" y="308.25" width="3.28" height="13.12"/><rect class="cls-13" x="97.84" y="308.25" width="3.28" height="13.12"/><rect class="cls-13" x="87.34" y="308.25" width="3.28" height="13.12"/><rect class="cls-13" x="44.69" y="308.25" width="3.28" height="13.12"/><rect class="cls-13" x="55.19" y="308.25" width="3.28" height="13.12"/><rect class="cls-13" x="65.69" y="308.25" width="3.28" height="13.12"/><rect class="cls-13" x="76.84" y="308.25" width="3.28" height="13.12"/><path class="cls-10" d="M107,309.21a1.67,1.67,0,0,1-1.72,1.66H30a1.67,1.67,0,0,1-1.72-1.66v-1.15A1.77,1.77,0,0,1,30,306.28h75.31a1.77,1.77,0,0,1,1.72,1.78Z"/><path class="cls-10" d="M107,320.36a1.68,1.68,0,0,1-1.72,1.67H30a1.68,1.68,0,0,1-1.72-1.67v-1.15A1.76,1.76,0,0,1,30,317.44h75.31a1.76,1.76,0,0,1,1.72,1.77Z"/><path class="cls-13" d="M115.56,398.15a2.63,2.63,0,0,1-2.63,2.63h0a2.62,2.62,0,0,1-2.62-2.63V321.37a2.62,2.62,0,0,1,2.62-2.62h0a2.62,2.62,0,0,1,2.63,2.62Z"/><path class="cls-11" d="M119.5,399.79a1.64,1.64,0,0,1-1.64,1.64h-10.5a1.63,1.63,0,0,1-1.64-1.64h0a1.64,1.64,0,0,1,1.64-1.64h10.5a1.65,1.65,0,0,1,1.64,1.64Z"/><circle class="cls-20" cx="112.29" cy="335" r="16.84" transform="translate(-203.99 177.52) rotate(-45)"/><circle class="cls-4" cx="112.29" cy="335.66" r="12.69" transform="translate(-204.46 177.71) rotate(-45)"/><path class="cls-11" d="M118.84,331.22H106.37a2,2,0,0,0-2,2v4.59a1.93,1.93,0,0,0,2,1.92h1.26v.07a1.59,1.59,0,1,0,3.17,0,.56.56,0,0,0,0-.07h3.41v.07a1.58,1.58,0,1,0,3.16,0v-.07h1.49a1.93,1.93,0,0,0,2-1.92v-4.59A2,2,0,0,0,118.84,331.22Z"/><rect class="cls-4" x="114.9" y="333.18" width="5.25" height="3.94" rx="1.94"/><path class="cls-4" d="M108.34,336.35a.67.67,0,0,1-.66.74h0a.67.67,0,0,1-.65-.74v-1.93a.67.67,0,0,1,.65-.74h0a.67.67,0,0,1,.66.74Z"/><path class="cls-4" d="M111,336.35a.67.67,0,0,1-.65.74h0a.67.67,0,0,1-.66-.74v-1.93a.67.67,0,0,1,.66-.74h0a.67.67,0,0,1,.65.74Z"/><path class="cls-4" d="M113.59,336.35a.67.67,0,0,1-.66.74h0a.67.67,0,0,1-.65-.74v-1.93a.67.67,0,0,1,.65-.74h0a.67.67,0,0,1,.66.74Z"/></g></g></g></svg>