<svg xmlns="http://www.w3.org/2000/svg" viewBox="0 0 600 403"><defs><style>.cls-1{isolation:isolate;}.cls-2{fill:#ededed;}.cls-3{fill:#f7f7f7;}.cls-15,.cls-17,.cls-18,.cls-4,.cls-7,.cls-8,.cls-9{fill:#f2f2f2;}.cls-4,.cls-6{opacity:0.8;}.cls-4,.cls-6,.cls-8{mix-blend-mode:multiply;}.cls-10,.cls-16,.cls-19,.cls-5{fill:#e6e6e6;}.cls-6{fill:#f5f5f5;}.cls-7{stroke:#e6e6e6;stroke-width:1.85px;}.cls-11,.cls-16,.cls-17,.cls-18,.cls-19,.cls-7,.cls-9{stroke-miterlimit:10;}.cls-8{opacity:0.9;}.cls-19,.cls-9{stroke:#ccc;}.cls-11,.cls-16,.cls-18,.cls-19,.cls-9{stroke-width:1.23px;}.cls-10{mix-blend-mode:darken;}.cls-11,.cls-12{fill:#ccc;}.cls-11,.cls-16,.cls-17,.cls-18{stroke:#b3b3b3;}.cls-13{fill:#999;}.cls-14{fill:#b3b3b3;}.cls-17{stroke-width:2.46px;}.cls-20{fill:none;}</style></defs><title>rightbg</title><g class="cls-1"><g id="Layer_2" data-name="Layer 2"><g id="Layer_1-2" data-name="Layer 1"><polygon class="cls-2" points="581.53 214.26 581.53 191.48 529.2 191.48 529.2 214.6 529.2 302.48 529.2 400.79 600 400.79 600 214.26 581.53 214.26"/><rect class="cls-3" x="539.05" y="202.56" width="11.08" height="135.44" rx="2.07"/><rect class="cls-3" x="558.14" y="202.56" width="11.08" height="135.44" rx="2.07"/><path class="cls-3" d="M592.61,356.3a2,2,0,0,1-2.06,2H583.6a2,2,0,0,1-2.07-2V225a2.12,2.12,0,0,1,2.07-2.12h6.95a2.11,2.11,0,0,1,2.06,2.12Z"/><polygon class="cls-4" points="529.2 402.94 600 402.94 600 265.83 529.2 336.63 529.2 402.94"/><polygon class="cls-5" points="472.57 196.45 472.57 278.28 474.41 278.28 474.41 278.9 529.2 278.9 529.2 215.25 472.57 196.45"/><polygon class="cls-3" points="351.9 263.2 351.9 241.66 401.77 241.66 401.77 263.2 401.77 318.15 401.77 403 320.51 403 320.51 263.2 351.9 263.2"/><polygon class="cls-5" points="436.25 278.64 436.25 400.49 432.55 400.49 432.55 401.72 350.67 401.72 350.67 306.71 436.25 278.64"/><ellipse class="cls-5" cx="426.6" cy="137.06" rx="23.71" ry="27.48"/><path class="cls-5" d="M454.1,133.3a1.87,1.87,0,0,1-1.91,1.86h-51a1.87,1.87,0,0,1-1.91-1.86v-3.57a2,2,0,0,1,1.91-2h51a2,2,0,0,1,1.91,2Z"/><rect class="cls-3" x="396.23" y="134.54" width="60.33" height="256.1"/><path class="cls-5" d="M414.7,252.45c0,1.08-.83,1.52-1.9,1.52h-6.92c-1.07,0-2.26-.44-2.26-1.52v-106c0-1.07,1.19-2.66,2.26-2.66h6.92c1.07,0,1.9,1.59,1.9,2.66Z"/><path class="cls-5" d="M431.94,252.45c0,1.08-.59,1.52-1.67,1.52h-6.91c-1.08,0-1.89-.44-1.89-1.52v-106c0-1.07.81-2.66,1.89-2.66h6.91c1.08,0,1.67,1.59,1.67,2.66Z"/><path class="cls-5" d="M448.56,252.45c0,1.08-.57,1.52-1.65,1.52H440c-1.08,0-1.91-.44-1.91-1.52v-106c0-1.07.83-2.66,1.91-2.66h6.91c1.08,0,1.65,1.59,1.65,2.66Z"/><polygon class="cls-6" points="455.94 170.96 455.94 355.55 395.61 355.55 395.61 231.69 455.94 170.96"/><rect class="cls-2" x="387.61" y="258.28" width="81.26" height="132.97"/><line class="cls-7" x1="399.62" y1="267.51" x2="399.62" y2="387.56"/><line class="cls-7" x1="429.17" y1="267.51" x2="429.17" y2="387.56"/><line class="cls-7" x1="415.01" y1="267.51" x2="415.01" y2="387.56"/><line class="cls-7" x1="458.71" y1="267.51" x2="458.71" y2="387.56"/><line class="cls-7" x1="443.94" y1="267.51" x2="443.94" y2="387.56"/><path class="cls-5" d="M475.64,261.51a1.71,1.71,0,0,1-1.74,1.7H383.2a1.72,1.72,0,0,1-1.75-1.7v-7a1.8,1.8,0,0,1,1.75-1.8h90.7a1.79,1.79,0,0,1,1.74,1.8Z"/><polygon class="cls-8" points="468.87 348.78 468.87 239.66 387.61 320.92 387.61 348.78 468.87 348.78"/><polygon class="cls-5" points="431.64 127.77 421.76 127.77 426.9 80.98 431.64 127.77"/><polygon class="cls-9" points="484.88 305.11 484.88 402.33 337.75 402.33 337.75 345.11 484.88 305.11"/><path class="cls-10" d="M482.17,311.8l-1.23-4.61a1.69,1.69,0,0,0-.58-.88l-52.13,14.15h-1.84V321l-88.64,24.1v7.06l88.64-23.75,11.7-3.13L481,313.78A1.61,1.61,0,0,0,482.17,311.8Z"/><path class="cls-11" d="M334.3,347.37a1.61,1.61,0,0,0,2,1.14l150.29-40.27a1.62,1.62,0,0,0,1.15-2l-1.24-4.61a1.62,1.62,0,0,0-2-1.14L334.2,340.78a1.62,1.62,0,0,0-1.14,2Z"/><path class="cls-5" d="M350.67,354.64c0-.89,1.4-1.55,2.29-1.55h30.19a1.38,1.38,0,0,1,1.38,1.55v41c0,.89-.49,2.36-1.38,2.36H353a3.1,3.1,0,0,1-2.29-2.36Z"/><path class="cls-12" d="M353.13,395.56c0-.61,0-.05,0-.09V354.93h28.93v40.63Z"/><path class="cls-5" d="M379.75,376a2.13,2.13,0,1,1-2.13-2.13A2.13,2.13,0,0,1,379.75,376Z"/><rect class="cls-13" x="345.75" y="397.41" width="44.32" height="4.31"/><rect class="cls-14" x="350.67" y="392.49" width="33.86" height="4.92"/><rect class="cls-5" x="390.69" y="353.09" width="21.55" height="39.4"/><rect class="cls-15" x="392.54" y="355.55" width="7.39" height="8.62"/><rect class="cls-15" x="403.62" y="355.55" width="6.77" height="8.62"/><rect class="cls-15" x="392.54" y="366.63" width="7.39" height="8"/><rect class="cls-15" x="403.62" y="366.63" width="6.77" height="8"/><rect class="cls-15" x="392.54" y="377.1" width="7.39" height="8"/><rect class="cls-15" x="403.62" y="377.1" width="6.77" height="8"/><rect class="cls-5" x="415.93" y="353.09" width="21.55" height="39.4"/><rect class="cls-15" x="417.78" y="355.55" width="7.39" height="8.62"/><rect class="cls-15" x="428.86" y="355.55" width="6.77" height="8.62"/><rect class="cls-15" x="417.78" y="366.63" width="7.39" height="8"/><rect class="cls-15" x="428.86" y="366.63" width="6.77" height="8"/><rect class="cls-15" x="417.78" y="377.1" width="7.39" height="8"/><rect class="cls-15" x="428.86" y="377.1" width="6.77" height="8"/><rect class="cls-14" x="463.95" y="203.49" width="4.92" height="16.01"/><rect class="cls-14" x="444.25" y="203.49" width="4.92" height="16.01"/><rect class="cls-11" x="427.63" y="182.56" width="57.87" height="24.62" rx="12.13"/><rect class="cls-5" x="431.94" y="186.87" width="49.25" height="16.01" rx="7.82"/><rect class="cls-9" x="431.32" y="220.73" width="103.42" height="180.99"/><polygon class="cls-5" points="529.4 225.65 431.94 225.65 431.94 229.96 529.2 229.96 534.13 229.96 534.13 225.65 529.4 225.65"/><path class="cls-11" d="M540.28,222.66c0,1.07-.31,2.38-1.38,2.38H428.2a2.82,2.82,0,0,1-2.42-2.38V217.5c0-1.07,1.35-1.7,2.42-1.7H538.9c1.07,0,1.38.63,1.38,1.7Z"/><rect class="cls-5" x="498.42" y="257.05" width="21.55" height="39.4"/><rect class="cls-15" x="500.27" y="260.13" width="7.39" height="7.39"/><rect class="cls-15" x="511.35" y="260.13" width="6.16" height="7.39"/><rect class="cls-15" x="500.27" y="270.59" width="7.39" height="8"/><rect class="cls-15" x="511.35" y="270.59" width="6.16" height="8"/><rect class="cls-15" x="500.27" y="280.44" width="7.39" height="8.62"/><rect class="cls-15" x="511.35" y="280.44" width="6.16" height="8.62"/><rect class="cls-5" x="446.71" y="257.05" width="22.16" height="39.4"/><rect class="cls-15" x="449.17" y="260.13" width="7.39" height="7.39"/><rect class="cls-15" x="459.64" y="260.13" width="7.39" height="7.39"/><rect class="cls-15" x="449.17" y="270.59" width="7.39" height="8"/><rect class="cls-15" x="459.64" y="270.59" width="7.39" height="8"/><rect class="cls-15" x="449.17" y="280.44" width="7.39" height="8.62"/><rect class="cls-15" x="459.64" y="280.44" width="7.39" height="8.62"/><rect class="cls-5" x="498.42" y="301.99" width="21.55" height="39.4"/><rect class="cls-15" x="500.27" y="304.45" width="7.39" height="8.62"/><rect class="cls-15" x="511.35" y="304.45" width="6.16" height="8.62"/><rect class="cls-15" x="500.27" y="315.53" width="7.39" height="8"/><rect class="cls-15" x="511.35" y="315.53" width="6.16" height="8"/><rect class="cls-15" x="500.27" y="326" width="7.39" height="8"/><rect class="cls-15" x="511.35" y="326" width="6.16" height="8"/><rect class="cls-5" x="496.58" y="348.78" width="21.55" height="39.4"/><rect class="cls-15" x="499.04" y="351.24" width="7.39" height="8.62"/><rect class="cls-15" x="509.5" y="351.24" width="6.77" height="8.62"/><rect class="cls-15" x="499.04" y="362.32" width="7.39" height="8.62"/><rect class="cls-15" x="509.5" y="362.32" width="6.77" height="8.62"/><rect class="cls-15" x="499.04" y="372.79" width="7.39" height="8.62"/><rect class="cls-15" x="509.5" y="372.79" width="6.77" height="8.62"/><rect class="cls-5" x="446.71" y="301.99" width="22.16" height="39.4"/><rect class="cls-15" x="449.17" y="304.45" width="7.39" height="8.62"/><rect class="cls-15" x="459.64" y="304.45" width="7.39" height="8.62"/><rect class="cls-15" x="449.17" y="315.53" width="7.39" height="8"/><rect class="cls-15" x="459.64" y="315.53" width="7.39" height="8"/><rect class="cls-15" x="449.17" y="326" width="7.39" height="8"/><rect class="cls-15" x="459.64" y="326" width="7.39" height="8"/><rect class="cls-5" x="473.18" y="257.05" width="21.55" height="39.4"/><rect class="cls-15" x="475.03" y="260.13" width="7.39" height="7.39"/><rect class="cls-15" x="486.11" y="260.13" width="6.77" height="7.39"/><rect class="cls-15" x="475.03" y="270.59" width="7.39" height="8"/><rect class="cls-15" x="486.11" y="270.59" width="6.77" height="8"/><rect class="cls-15" x="475.03" y="280.44" width="7.39" height="8.62"/><rect class="cls-15" x="486.11" y="280.44" width="6.77" height="8.62"/><rect class="cls-5" x="473.18" y="301.99" width="21.55" height="39.4"/><rect class="cls-15" x="475.03" y="304.45" width="7.39" height="8.62"/><rect class="cls-15" x="486.11" y="304.45" width="6.77" height="8.62"/><rect class="cls-15" x="475.03" y="315.53" width="7.39" height="8"/><rect class="cls-15" x="486.11" y="315.53" width="6.77" height="8"/><rect class="cls-15" x="475.03" y="326" width="7.39" height="8"/><rect class="cls-15" x="486.11" y="326" width="6.77" height="8"/><path class="cls-5" d="M446.71,350.33c0-.89,1.4-1.55,2.29-1.55h30.19a1.38,1.38,0,0,1,1.38,1.55v41c0,.89-.49,2.36-1.38,2.36H449a3.1,3.1,0,0,1-2.29-2.36Z"/><path class="cls-12" d="M449.17,391.25c0-.61,0-.05,0-.09V350.62h28.94v40.63Z"/><path class="cls-5" d="M475.79,371.69a2.13,2.13,0,1,1-2.13-2.13A2.13,2.13,0,0,1,475.79,371.69Z"/><rect class="cls-14" x="433.78" y="397.41" width="59.72" height="3.69"/><rect class="cls-13" x="441.79" y="393.1" width="44.32" height="4.31"/><rect class="cls-14" x="446.71" y="388.18" width="33.86" height="4.92"/><path class="cls-5" d="M521.2,249.14c0,1.07,0,2.37-1,2.37H449.07a2.75,2.75,0,0,1-2.36-2.37V235.2c0-1.07,1.29-.93,2.36-.93h71.11c1.07,0,1-.14,1,.93Z"/><path class="cls-15" d="M328,325.56c-1.42,23.06-15,41-30.41,40s-26.7-20.41-25.28-43.47,15-41,30.41-40S329.43,302.49,328,325.56Z"/><polygon class="cls-5" points="312.17 341.51 301.88 349.43 300.17 312.94 295.98 402.33 304.36 402.33 302.1 354.22 312.17 341.51"/><path class="cls-14" d="M423.93,398.64a2.46,2.46,0,0,1-2.46,2.46h0a2.46,2.46,0,0,1-2.46-2.46V281.06a2.46,2.46,0,0,1,2.46-2.46h0a2.46,2.46,0,0,1,2.46,2.46Z"/><rect class="cls-16" x="400.54" y="283.52" width="44.32" height="21.55" rx="1.62"/><rect class="cls-15" x="404.85" y="287.83" width="35.71" height="12.93"/><path class="cls-12" d="M427.63,400.18a1.54,1.54,0,0,1-1.54,1.54h-9.85a1.54,1.54,0,0,1-1.54-1.54h0a1.54,1.54,0,0,1,1.54-1.54h9.85a1.54,1.54,0,0,1,1.54,1.54Z"/><path class="cls-14" d="M325.46,266.31a3.33,3.33,0,0,0-3.11,3V400.05a3.1,3.1,0,0,0,6.16,0V271.85Z"/><path class="cls-12" d="M332.2,401.41a1.53,1.53,0,0,1-1.53,1.54h-9.85a1.54,1.54,0,0,1-1.54-1.54h0a1.54,1.54,0,0,1,1.54-1.54h9.85a1.53,1.53,0,0,1,1.53,1.54Z"/><polygon class="cls-17" points="331.4 281.67 319.41 281.67 317.69 264.44 333.12 264.44 331.4 281.67"/><rect class="cls-14" x="322.97" y="282.29" width="5.54" height="1.85"/><line class="cls-18" x1="322.97" y1="265.67" x2="322.97" y2="280.44"/><line class="cls-18" x1="328.51" y1="265.67" x2="328.51" y2="280.44"/><path class="cls-13" d="M337.13,264.6a1.08,1.08,0,0,1-1.13,1.07H315.48a1.09,1.09,0,0,1-1.13-1.07v-.22a1.17,1.17,0,0,1,1.13-1.17H336a1.16,1.16,0,0,1,1.13,1.17Z"/><rect class="cls-13" x="321.12" y="261.36" width="10.47" height="2.46" rx="1.16"/><path class="cls-5" d="M271.88,402.34s9.75-17.38,27.59-6.95c0,0,13-.44,14.14,6.95Z"/><rect class="cls-14" x="258.33" y="377.1" width="3.69" height="25.24"/><rect class="cls-14" x="289.11" y="377.1" width="3.69" height="25.24"/><rect class="cls-12" x="251.56" y="377.1" width="47.4" height="3.69"/><rect class="cls-12" x="251.56" y="382.02" width="47.4" height="3.69"/><rect class="cls-12" x="251.56" y="386.94" width="47.4" height="3.69"/><rect class="cls-12" x="249.1" y="392.49" width="51.71" height="3.69"/><rect class="cls-14" x="249.1" y="392.49" width="51.71" height="1.23"/><path class="cls-14" d="M237.4,399.92a1.85,1.85,0,0,1-1.85,1.85h0a1.84,1.84,0,0,1-1.84-1.85V355.6a1.84,1.84,0,0,1,1.84-1.85h0a1.85,1.85,0,0,1,1.85,1.85Z"/><path class="cls-19" d="M249.71,371.61a1.18,1.18,0,0,1-1.22,1.18H225.9c-.68,0-10.93-7.85-10.93-7.85s10.25-8.16,10.93-8.16h22.59a1.27,1.27,0,0,1,1.22,1.28Z"/><rect class="cls-12" x="230.01" y="399.87" width="9.85" height="2.46" rx="1.11"/><rect class="cls-20" width="600" height="403"/><rect class="cls-20" width="600" height="403"/></g></g></g></svg>