<svg xmlns="http://www.w3.org/2000/svg" xmlns:xlink="http://www.w3.org/1999/xlink" viewBox="0 0 141 232.33"><defs><clipPath id="clip-path" transform="translate(0 -16.67)"><rect width="140.57" height="249" fill="none"/></clipPath></defs><title>download-asset</title><g id="Layer_2" data-name="Layer 2"><g id="Layer_1-2" data-name="Layer 1"><g clip-path="url(#clip-path)"><g id="Layer_1-2-2" data-name="Layer 1-2"><rect x="65.85" y="8.99" width="68.29" height="25.59" fill="#fb6537"/><rect x="7" y="8.99" width="32.4" height="223.34" fill="#c7cfd5"/><path d="M141,105.32H87V51.25h43.1A10.89,10.89,0,0,1,141,62.14Z" transform="translate(0 -16.67)" fill="#014e89"/><rect x="87.02" y="138.79" width="53.98" height="93.54" fill="#317caa"/><rect x="12" y="8.99" width="2" height="223.34" fill="#728896"/><path d="M87,249H16V25.66H66.27A20.75,20.75,0,0,1,87,46.41Z" transform="translate(0 -16.67)" fill="#014e89"/><rect x="20.03" y="8.99" width="2.03" height="223.34" fill="#ffca09"/><rect x="30.42" y="162.38" width="38.03" height="7.55" fill="#8754a1"/><rect x="30.42" y="175.41" width="29.68" height="7.55" fill="#5471a4"/><rect x="30.42" y="188.43" width="21.96" height="7.55" fill="#218fa6"/><rect y="35.79" width="14" height="9" fill="#ffca09"/><rect y="49.29" width="14" height="9" fill="#fb6537"/><rect y="62.79" width="14" height="9" fill="#14b37d"/><rect x="12" y="35.79" width="2" height="9" fill="#ffb109"/><rect x="12" y="49.29" width="2" height="9" fill="#fb4737"/><rect x="12" y="62.79" width="2" height="9" fill="#14977d"/></g><rect x="87.02" y="88.65" width="53.93" height="53.93" fill="#002a44"/><path d="M141,159.25V105.32A53.94,53.94,0,0,0,87,159.25H141Z" transform="translate(0 -16.67)" fill="#fb6537"/><path d="M78.47,207.07c0-7.78,5.55-14,13.89-14,8.5,0,14,6.35,14,14,0,7.94-5.64,14.06-14,14.06S78.47,215,78.47,207.07ZM124,193.58h9.37L94.61,249H85.16ZM97.6,207.07c0-3.89-2.22-6.35-5.24-6.35s-5.16,2.38-5.16,6.35,2.31,6.36,5.16,6.36C95.38,213.43,97.6,211,97.6,207.07ZM112.69,235c0-7.95,5.64-14.14,14-14.14s13.91,6.36,13.91,14.14S134.84,249,126.66,249C118.25,249,112.69,242.73,112.69,235Zm19.22,0c0-3.9-2.3-6.36-5.25-6.36s-5.23,2.31-5.23,6.36c0,3.89,2.22,6.35,5.23,6.35S131.91,238.92,131.91,235Z" transform="translate(0 -16.67)" fill="#014e89"/><path d="M141,159.25v-32.6a32.6,32.6,0,0,0-32.61,32.6H141Z" transform="translate(0 -16.67)" fill="#ffca09"/><path d="M87,51.26s39.46-2.85,39.46,41.62H115.56v12.44H87.08Z" transform="translate(0 -16.67)" fill="#317caa"/><path d="M94,75a5.84,5.84,0,1,0,5.84-5.84A5.83,5.83,0,0,0,94,75Z" transform="translate(0 -16.67)" fill="#002a44"/><path d="M71.29,47.41a3.09,3.09,0,0,0,.63,1.86,3.05,3.05,0,1,0-.63-1.86Z" transform="translate(0 -16.67)" fill="#317caa"/><path d="M71.29,56.47a3.06,3.06,0,1,0,3.06-3.06A3,3,0,0,0,71.29,56.47Z" transform="translate(0 -16.67)" fill="#317caa"/><path d="M71.29,65.53a3.06,3.06,0,1,0,3.06-3.06A3.08,3.08,0,0,0,71.29,65.53Z" transform="translate(0 -16.67)" fill="#317caa"/><polygon points="121.03 34.39 134 48.22 134.14 34.37 121.03 34.39" fill="#fb6537"/><path d="M30.53,25.68c-5.86,0-5.86-9-11.73-9s-5.86,9-11.73,9Z" transform="translate(0 -16.67)" fill="#ffca09"/><path d="M100.93,25.68c-5.87,0-5.87-9-11.74-9s-5.87,9-11.74,9Z" transform="translate(0 -16.67)" fill="#8754a1"/><path d="M77.45,25.68c-5.86,0-5.86-9-11.73-9s-5.86,9-11.73,9Z" transform="translate(0 -16.67)" fill="#fb6537"/><path d="M54,25.68c-5.87,0-5.87-9-11.73-9s-5.87,9-11.73,9Z" transform="translate(0 -16.67)" fill="#14b37d"/><path d="M55.62,116.83v28.73H28.69a26.14,26.14,0,1,0,26.93-28.73Z" transform="translate(0 -16.67)" fill="#ffca09"/></g></g></g></svg>